<?xml version="1.0" encoding="iso-8859-1"?>
<!-- Generator: Adobe Illustrator 18.1.1, SVG Export Plug-In . SVG Version: 6.00 Build 0)  -->
<svg version="1.1" id="Capa_1" xmlns="http://www.w3.org/2000/svg" xmlns:xlink="http://www.w3.org/1999/xlink" x="0px" y="0px"
	 viewBox="0 0 96 96" style="enable-background:new 0 0 96 96;" xml:space="preserve">
<g>
	<path style="fill:#030104;" d="M28.545,2.509L0,20.286l19.557,16.396L48,18.213L28.545,2.509z M65.26,77.967
		c-0.508,0-1.014-0.172-1.426-0.513L48,64.314l-15.834,13.14c-0.412,0.341-0.92,0.513-1.426,0.513c-0.426,0-0.85-0.118-1.223-0.362
		l-11.729-7.667v4.522L48,93.491l30.209-19.03v-4.522L66.48,77.605C66.109,77.849,65.686,77.967,65.26,77.967z M96,20.286
		L67.453,2.509L48,18.213l28.441,18.469L96,20.286z M48,54.458l17.639,14.64l28.205-18.443L76.441,36.682L48,54.458z M30.361,69.098
		L48,54.458L19.557,36.682L2.154,50.655L30.361,69.098z"/>
</g>
<g>
</g>
<g>
</g>
<g>
</g>
<g>
</g>
<g>
</g>
<g>
</g>
<g>
</g>
<g>
</g>
<g>
</g>
<g>
</g>
<g>
</g>
<g>
</g>
<g>
</g>
<g>
</g>
<g>
</g>
</svg>
